<svg viewBox="6.5 6.5 202.7 62.0" fill="none" xmlns="http://www.w3.org/2000/svg">
  <circle cx="37.5" cy="37.5" r="30" stroke="#fff" stroke-width="1.8" fill="none" opacity="0.3"/>
  <path d="M34.5 18L34.5 48L19.5 48Z" fill="#fff" opacity="0.3"/>
  <path d="M37.5 25.5L37.5 48L55.5 48Z" fill="#fff"/>
  <g transform="translate(82, 46.65)">
    <g fill="#ffffff"><path d="M0.96 6.59L0.19 6.59L0.19 1.73L1.09 1.73Q2.24 1.73 2.85 1.12Q3.46 0.51 3.46-0.64L3.46-0.64L3.46-13.44L1.09-13.44L1.09-17.66L9.09-17.66L9.09-0.70Q9.09 1.95 8.22 3.55Q7.36 5.15 5.57 5.87Q3.78 6.59 0.96 6.59L0.96 6.59ZM5.63-19.07L5.63-19.07Q4.06-19.07 3.31-19.89Q2.56-20.70 2.56-21.98Q2.56-23.26 3.31-24.08Q4.06-24.90 5.63-24.90L5.63-24.90Q7.23-24.90 7.97-24.08Q8.70-23.26 8.70-21.98Q8.70-20.70 7.97-19.89Q7.23-19.07 5.63-19.07ZM18.06 0.58L17.80 0.58Q14.80 0.58 13.15-1.39Q11.50-3.36 11.50-7.42L11.50-7.42L11.50-17.66L17.32-17.66L17.32-7.26Q17.32-6.08 18.03-5.34Q18.73-4.61 19.92-4.61Q21.10-4.61 21.84-5.34Q22.57-6.08 22.57-7.33L22.57-7.33L22.57-17.66L28.40-17.66L28.40 0L23.79 0L23.79-4.16Q23.63-3.49 23.44-2.94L23.44-2.94Q22.73-1.15 21.39-0.29Q20.04 0.58 18.06 0.58L18.06 0.58ZM38.39 0.58L38.39 0.58Q34.55 0.58 32.34-1.01Q30.14-2.59 29.98-5.47L29.98-5.47L35.10-5.47Q35.22-4.67 36.09-4.10Q36.95-3.52 38.52-3.52L38.52-3.52Q39.64-3.52 40.46-3.86Q41.27-4.19 41.27-4.96L41.27-4.96Q41.27-5.63 40.63-6.06Q39.99-6.50 38.30-6.66L38.30-6.66L37.08-6.78Q33.69-7.14 32.09-8.64Q30.49-10.14 30.49-12.42L30.49-12.42Q30.49-14.37 31.45-15.63Q32.41-16.90 34.10-17.54Q35.80-18.18 37.98-18.18L37.98-18.18Q41.53-18.18 43.70-16.62Q45.88-15.07 46.01-12.16L46.01-12.16L40.89-12.16Q40.76-12.96 40.02-13.52Q39.29-14.08 37.91-14.08L37.91-14.08Q36.92-14.08 36.30-13.73Q35.67-13.38 35.67-12.74L35.67-12.74Q35.67-12.06 36.26-11.74Q36.86-11.42 38.17-11.26L38.17-11.26L39.38-11.14Q42.78-10.78 44.62-9.26Q46.46-7.74 46.46-5.28L46.46-5.28Q46.46-3.46 45.48-2.14Q44.50-0.83 42.70-0.13Q40.89 0.58 38.39 0.58ZM58.88 0.26L56.48 0.26Q53.60 0.26 51.89-0.45Q50.18-1.15 49.41-2.78Q48.64-4.42 48.64-7.20L48.64-7.20L48.64-13.44L46.08-13.44L46.08-17.66L48.68-17.66L48.68-22.27L54.05-22.27L54.05-17.66L58.88-17.66L58.88-13.44L54.02-13.44L54.02-7.04Q54.02-5.86 54.64-5.23Q55.27-4.61 56.45-4.61L56.45-4.61L58.88-4.61L58.88 0.26Z"/></g>
    <g fill="#3b82f6"><path d="M67.73 0.58L67.73 0.58Q63.89 0.58 61.68-1.01Q59.47-2.59 59.31-5.47L59.31-5.47L64.43-5.47Q64.56-4.67 65.42-4.10Q66.29-3.52 67.86-3.52L67.86-3.52Q68.98-3.52 69.79-3.86Q70.61-4.19 70.61-4.96L70.61-4.96Q70.61-5.63 69.97-6.06Q69.33-6.50 67.63-6.66L67.63-6.66L66.42-6.78Q63.02-7.14 61.42-8.64Q59.82-10.14 59.82-12.42L59.82-12.42Q59.82-14.37 60.78-15.63Q61.74-16.90 63.44-17.54Q65.14-18.18 67.31-18.18L67.31-18.18Q70.86-18.18 73.04-16.62Q75.22-15.07 75.34-12.16L75.34-12.16L70.22-12.16Q70.10-12.96 69.36-13.52Q68.62-14.08 67.25-14.08L67.25-14.08Q66.26-14.08 65.63-13.73Q65.01-13.38 65.01-12.74L65.01-12.74Q65.01-12.06 65.60-11.74Q66.19-11.42 67.50-11.26L67.50-11.26L68.72-11.14Q72.11-10.78 73.95-9.26Q75.79-7.74 75.79-5.28L75.79-5.28Q75.79-3.46 74.82-2.14Q73.84-0.83 72.03-0.13Q70.22 0.58 67.73 0.58ZM83.23 0L77.40 0L77.40-23.36L83.23-23.36L83.23-14.82Q83.90-16.45 85.12-17.31L85.12-17.31Q86.40-18.24 88.32-18.24L88.32-18.24L88.57-18.24Q91.45-18.24 92.97-16.16Q94.49-14.08 94.49-10.05L94.49-10.05L94.49 0L88.67 0L88.67-10.27Q88.67-11.49 87.93-12.27Q87.20-13.06 85.98-13.06Q84.76-13.06 84.00-12.27Q83.23-11.49 83.23-10.21L83.23-10.21L83.23 0ZM103.75 0L97.93 0L97.93-13.44L95.69-13.44L95.69-17.66L103.75-17.66L103.75 0ZM100.33-19.07L100.33-19.07Q98.73-19.07 97.98-19.89Q97.22-20.70 97.22-21.98Q97.22-23.26 97.98-24.08Q98.73-24.90 100.30-24.90L100.30-24.90Q101.90-24.90 102.63-24.08Q103.37-23.26 103.37-21.98Q103.37-20.70 102.63-19.89Q101.90-19.07 100.33-19.07ZM112.56 6.40L106.74 6.40L106.74-17.66L111.35-17.66L111.35-13.18Q111.57-13.86 111.89-14.46L111.89-14.46Q112.82-16.29 114.45-17.23Q116.08-18.18 118.20-18.18L118.20-18.18Q120.02-18.18 121.49-17.52Q122.96-16.86 124.02-15.66Q125.08-14.46 125.64-12.83Q126.20-11.20 126.20-9.25L126.20-9.25L126.20-8.48Q126.20-6.53 125.68-4.88Q125.17-3.23 124.15-2Q123.12-0.77 121.64-0.10Q120.15 0.58 118.23 0.58L118.23 0.58Q116.18 0.58 114.61-0.26L114.61-0.26Q113.40-0.86 112.56-2.02L112.56-2.02L112.56 6.40ZM116.47-4.22L116.47-4.22Q117.62-4.22 118.50-4.82Q119.38-5.41 119.88-6.46Q120.37-7.52 120.37-8.86L120.37-8.86Q120.37-10.24 119.88-11.25Q119.38-12.26 118.52-12.82Q117.65-13.38 116.47-13.38L116.47-13.38Q115.41-13.38 114.50-12.90Q113.59-12.42 113.01-11.49Q112.44-10.56 112.44-9.25L112.44-9.25L112.44-8.16Q112.44-6.91 113.04-6.03Q113.65-5.15 114.58-4.69Q115.51-4.22 116.47-4.22Z"/></g>
  </g>
</svg>